<?xml version="1.0" standalone="no"?>
<svg xmlns:xlink="http://www.w3.org/1999/xlink" id="wave" style="transform:rotate(0deg); transition: 0.3s" viewBox="0 0 1440 100" version="1.1" xmlns="http://www.w3.org/2000/svg"><defs><linearGradient id="sw-gradient-0" x1="0" x2="0" y1="1" y2="0"><stop stop-color="rgba(9, 16, 45, 1)" offset="0%"/><stop stop-color="rgba(9, 16, 45, 1)" offset="100%"/></linearGradient></defs><path style="transform:translate(0, 0px); opacity:1" fill="url(#sw-gradient-0)" d="M0,50L48,56.7C96,63,192,77,288,76.7C384,77,480,63,576,55C672,47,768,43,864,35C960,27,1056,13,1152,8.3C1248,3,1344,7,1440,6.7C1536,7,1632,3,1728,11.7C1824,20,1920,40,2016,53.3C2112,67,2208,73,2304,78.3C2400,83,2496,87,2592,85C2688,83,2784,77,2880,61.7C2976,47,3072,23,3168,20C3264,17,3360,33,3456,35C3552,37,3648,23,3744,20C3840,17,3936,23,4032,25C4128,27,4224,23,4320,18.3C4416,13,4512,7,4608,10C4704,13,4800,27,4896,36.7C4992,47,5088,53,5184,50C5280,47,5376,33,5472,36.7C5568,40,5664,60,5760,60C5856,60,5952,40,6048,26.7C6144,13,6240,7,6336,13.3C6432,20,6528,40,6624,53.3C6720,67,6816,73,6864,76.7L6912,80L6912,100L6864,100C6816,100,6720,100,6624,100C6528,100,6432,100,6336,100C6240,100,6144,100,6048,100C5952,100,5856,100,5760,100C5664,100,5568,100,5472,100C5376,100,5280,100,5184,100C5088,100,4992,100,4896,100C4800,100,4704,100,4608,100C4512,100,4416,100,4320,100C4224,100,4128,100,4032,100C3936,100,3840,100,3744,100C3648,100,3552,100,3456,100C3360,100,3264,100,3168,100C3072,100,2976,100,2880,100C2784,100,2688,100,2592,100C2496,100,2400,100,2304,100C2208,100,2112,100,2016,100C1920,100,1824,100,1728,100C1632,100,1536,100,1440,100C1344,100,1248,100,1152,100C1056,100,960,100,864,100C768,100,672,100,576,100C480,100,384,100,288,100C192,100,96,100,48,100L0,100Z"/></svg>